<?xml version="1.0" standalone="no"?>
<!DOCTYPE svg PUBLIC "-//W3C//DTD SVG 20010904//EN"
 "http://www.w3.org/TR/2001/REC-SVG-20010904/DTD/svg10.dtd">
<svg version="1.0" xmlns="http://www.w3.org/2000/svg"
 width="1024.000000pt" height="1024.000000pt" viewBox="0 0 1024.000000 1024.000000"
 preserveAspectRatio="xMidYMid meet">

<g transform="translate(0.000000,1024.000000) scale(0.100000,-0.100000)"
fill="#000000" stroke="none">
<path d="M1767 7905 c-83 -29 -121 -89 -115 -178 4 -53 8 -63 41 -93 49 -45
115 -61 281 -68 130 -6 141 -8 198 -38 95 -51 183 -157 262 -315 65 -131 65
-122 -7 -165 -139 -82 -283 -218 -386 -363 -23 -33 -50 -63 -59 -67 -9 -4 -59
-7 -110 -7 -154 -1 -182 -26 -182 -157 0 -71 2 -78 29 -103 15 -14 44 -35 63
-45 l35 -19 6 -102 c4 -56 13 -133 21 -171 7 -38 17 -112 20 -164 9 -118 29
-218 65 -321 16 -43 27 -79 25 -79 -2 0 -26 13 -52 30 -136 83 -325 153 -477
176 -245 37 -450 -36 -542 -193 -101 -172 -52 -459 117 -684 89 -120 240 -248
360 -309 58 -29 57 -27 33 -53 -63 -71 -98 -177 -91 -283 9 -136 92 -255 224
-322 82 -41 155 -55 260 -50 75 4 103 10 173 41 47 20 86 35 89 33 2 -3 19
-50 37 -104 129 -383 391 -690 717 -841 l85 -40 83 -188 c46 -103 94 -215 108
-248 28 -70 40 -87 59 -83 8 2 38 59 68 128 29 69 80 185 113 258 l59 133 111
54 c138 68 245 148 361 272 152 160 263 344 337 558 22 64 41 104 48 101 159
-69 161 -70 257 -74 71 -3 112 0 155 13 278 80 406 334 288 569 -14 28 -35 62
-47 75 -21 22 -21 24 -3 35 186 113 291 203 381 324 33 45 61 80 62 78 3 -3
102 -432 171 -736 l48 -215 124 -3 125 -3 64 233 c35 128 78 287 96 354 l31
120 88 -353 88 -353 124 0 c68 0 124 3 124 6 0 3 50 219 110 481 61 262 114
493 119 514 l9 39 -118 0 -117 0 -6 -32 c-3 -18 -31 -166 -62 -328 -31 -162
-60 -322 -64 -355 -4 -33 -10 -53 -13 -45 -3 8 -45 178 -94 378 l-88 362 -102
0 -103 0 -15 -52 c-42 -149 -166 -639 -166 -656 0 -12 -4 -24 -10 -27 -6 -4
-10 7 -10 25 0 17 -27 184 -60 370 -33 186 -60 343 -60 349 0 7 -34 11 -96 11
-88 0 -95 2 -89 18 143 340 38 623 -255 692 -92 22 -260 16 -372 -13 -112 -29
-288 -102 -368 -152 -30 -18 -55 -33 -56 -32 -1 1 9 36 23 77 33 100 53 195
63 310 4 52 15 140 24 195 9 55 18 134 22 175 l5 75 52 30 c65 38 77 62 77
151 0 58 -4 76 -21 98 -30 39 -52 44 -178 47 l-112 2 -56 81 c-76 109 -218
248 -329 322 -51 34 -97 63 -104 66 -16 5 70 190 127 274 51 75 151 170 200
191 27 11 86 18 204 23 143 5 172 9 212 29 66 32 92 72 92 142 -1 105 -67 167
-189 176 -152 12 -327 -70 -479 -224 -116 -117 -212 -275 -282 -463 -15 -41
-29 -76 -30 -78 -1 -1 -28 7 -61 19 -176 61 -381 86 -565 69 -111 -10 -287
-47 -351 -75 l-32 -13 -47 118 c-26 65 -60 140 -75 167 -118 205 -273 359
-436 432 -111 50 -233 65 -311 36z m1601 -861 c96 -19 208 -57 287 -97 142
-70 299 -190 376 -288 l31 -39 -89 6 c-170 12 -438 -25 -632 -88 -80 -26 -113
-31 -196 -32 -87 -1 -113 3 -200 31 -189 61 -361 87 -576 88 l-156 0 54 61
c133 151 332 274 543 336 163 48 388 57 558 22z m-845 -673 l58 -6 -88 -130
c-93 -135 -188 -268 -281 -393 l-55 -73 -28 27 c-16 15 -41 45 -55 66 l-27 39
51 72 c28 40 102 147 164 239 l113 167 45 -1 c25 0 71 -3 103 -7z m1497 1 c0
-15 -299 -447 -379 -549 -24 -31 -26 -31 -45 -15 -10 9 -36 38 -57 65 l-38 47
66 92 c54 75 165 243 229 345 13 21 20 22 119 21 58 -2 105 -4 105 -6z m-814
-134 c14 -14 31 -55 44 -103 50 -191 122 -317 227 -398 130 -99 205 -121 418
-122 150 0 164 2 230 27 38 15 71 25 73 23 7 -7 -40 -139 -76 -210 -74 -149
-173 -265 -308 -361 -90 -64 -253 -139 -374 -171 -98 -26 -117 -28 -300 -27
-177 0 -204 3 -290 26 -344 93 -578 275 -709 551 -30 63 -74 187 -69 192 2 2
37 -8 78 -22 100 -34 289 -43 400 -19 115 24 212 77 295 160 94 95 151 214
185 387 9 48 15 58 48 78 45 26 96 22 128 -11z m-1716 -778 c163 -33 371 -149
567 -314 49 -41 98 -85 111 -99 l24 -25 -43 -88 c-55 -117 -93 -230 -116 -349
l-18 -97 -90 7 c-241 17 -381 55 -528 141 -105 62 -238 194 -296 291 -88 148
-119 325 -74 424 24 53 74 95 135 114 64 20 218 18 328 -5z m3633 0 c95 -36
140 -106 139 -220 -1 -185 -114 -391 -295 -536 -89 -71 -245 -147 -357 -173
-79 -19 -336 -48 -345 -39 -2 2 -15 57 -29 122 -28 126 -56 205 -118 329 -46
92 -52 77 82 190 151 128 355 253 494 304 123 45 339 57 429 23z m-2692 -1033
c105 -44 241 -80 384 -104 136 -22 515 -25 640 -4 267 43 420 86 544 152 40
22 76 38 78 35 14 -14 26 -261 16 -350 -12 -114 -11 -112 -131 -171 -229 -112
-570 -175 -882 -162 -331 15 -625 89 -818 207 l-82 51 0 152 c0 134 10 246 26
299 4 14 15 10 73 -27 37 -24 105 -59 152 -78z m-755 -74 c47 -10 128 -17 200
-17 l121 -1 6 -145 c4 -80 8 -154 9 -165 2 -14 -10 -26 -48 -47 -115 -62 -248
-73 -354 -27 -52 22 -114 82 -130 125 -15 37 -12 130 4 169 14 34 92 125 106
125 4 0 43 -8 86 -17z m3049 -18 c100 -100 109 -227 24 -320 -95 -103 -278
-123 -430 -46 -54 27 -54 27 -53 71 1 25 3 99 5 166 l3 121 131 7 c71 3 155
12 185 20 84 21 96 19 135 -19z m-2218 -859 c189 -80 356 -109 623 -109 152 1
221 5 312 22 129 23 301 76 393 120 33 17 61 29 62 27 9 -9 -126 -185 -197
-256 -364 -367 -735 -377 -1113 -30 -57 52 -193 223 -222 281 l-16 30 39 -26
c21 -14 75 -41 119 -59z"/>
<path d="M2789 5576 c-61 -30 -39 -115 54 -208 121 -121 317 -151 481 -73 139
66 238 214 178 268 -36 33 -73 22 -132 -39 -82 -84 -135 -108 -240 -108 -67
-1 -95 4 -133 21 -58 27 -104 64 -134 108 -27 40 -43 47 -74 31z"/>
<path d="M8680 4440 l0 -540 115 0 115 0 0 270 0 269 45 26 c64 38 130 38 162
1 23 -27 23 -29 23 -297 l0 -269 113 0 112 0 -2 132 c-2 73 -4 212 -5 308 -3
186 -9 210 -62 268 -80 89 -244 92 -343 7 -23 -19 -43 -35 -45 -35 -1 0 -2 90
0 200 l3 200 -116 0 -115 0 0 -540z"/>
<path d="M7578 4856 l-96 -8 -7 -94 -7 -94 -59 0 -59 0 0 -80 0 -80 55 0 55 0
0 -212 c0 -119 5 -230 11 -251 15 -54 71 -112 126 -131 55 -19 180 -21 253 -4
l52 12 -6 50 c-3 28 -6 62 -6 76 0 25 0 25 -79 22 -70 -4 -81 -2 -100 17 -12
12 -21 33 -22 49 0 15 -1 105 -2 200 l-2 172 98 0 97 0 0 80 0 80 -100 0 -99
0 -3 103 -3 102 -97 -9z"/>
<path d="M6850 4665 c-36 -8 -89 -24 -118 -36 -60 -25 -60 -20 -26 -135 13
-45 19 -54 32 -48 111 48 214 60 268 31 32 -17 54 -59 54 -103 0 -23 -4 -24
-61 -24 -76 0 -190 -25 -251 -56 -72 -36 -102 -82 -106 -164 -9 -155 73 -244
223 -243 71 0 161 29 186 59 18 22 29 16 29 -16 l0 -30 108 0 108 0 -3 68 c-1
37 -4 162 -7 277 -3 169 -7 220 -21 259 -24 65 -87 128 -151 150 -70 24 -186
29 -264 11z m210 -505 c0 -67 -1 -70 -29 -84 -37 -19 -103 -30 -135 -22 -32 8
-49 55 -34 96 13 39 56 61 133 70 33 4 61 8 63 9 1 0 2 -30 2 -69z"/>
<path d="M8263 4670 c-120 -24 -220 -106 -265 -218 -19 -49 -23 -75 -23 -182
0 -116 2 -129 28 -185 36 -78 95 -137 171 -172 56 -26 70 -28 181 -28 101 1
129 4 177 24 32 12 60 26 63 31 4 6 -48 135 -60 148 -2 2 -24 -4 -49 -12 -94
-32 -200 -10 -243 50 -60 84 -57 242 4 315 54 63 157 78 249 35 l51 -23 26 79
26 80 -52 23 c-84 39 -195 52 -284 35z"/>
</g>
</svg>
